<svg width="440" height="23" viewBox="0 0 440 23" fill="none" xmlns="http://www.w3.org/2000/svg">
<path d="M7.854 18.176C7.106 18.176 6.57067 17.8093 6.248 17.076L0.506 4.184C0.271333 3.62667 0.278667 3.17933 0.528 2.842C0.792 2.49 1.17333 2.314 1.672 2.314C2.09733 2.314 2.41267 2.40933 2.618 2.6C2.838 2.776 3.02133 3.04733 3.168 3.414L7.898 14.392L12.628 3.392C12.7893 3.04 12.98 2.776 13.2 2.6C13.42 2.40933 13.728 2.314 14.124 2.314C14.5933 2.314 14.9453 2.49 15.18 2.842C15.4293 3.194 15.4293 3.64133 15.18 4.184L9.438 17.076C9.27667 17.4427 9.07133 17.7213 8.822 17.912C8.58733 18.088 8.26467 18.176 7.854 18.176ZM20.6231 18.22C19.5084 18.22 18.5404 17.9927 17.7191 17.538C16.8978 17.0833 16.2598 16.438 15.8051 15.602C15.3504 14.7513 15.1231 13.754 15.1231 12.61C15.1231 11.466 15.3504 10.476 15.8051 9.64C16.2598 8.804 16.8978 8.15867 17.7191 7.704C18.5404 7.24933 19.5084 7.022 20.6231 7.022C21.7378 7.022 22.7058 7.24933 23.5271 7.704C24.3484 8.15867 24.9864 8.804 25.4411 9.64C25.8958 10.476 26.1231 11.466 26.1231 12.61C26.1231 13.754 25.8958 14.7513 25.4411 15.602C24.9864 16.438 24.3484 17.0833 23.5271 17.538C22.7058 17.9927 21.7378 18.22 20.6231 18.22ZM20.6231 16.13C21.4444 16.13 22.1044 15.8367 22.6031 15.25C23.1018 14.6487 23.3511 13.7687 23.3511 12.61C23.3511 11.4367 23.1018 10.564 22.6031 9.992C22.1044 9.40533 21.4444 9.112 20.6231 9.112C19.8018 9.112 19.1418 9.40533 18.6431 9.992C18.1444 10.564 17.8951 11.4367 17.8951 12.61C17.8951 13.7687 18.1444 14.6487 18.6431 15.25C19.1418 15.8367 19.8018 16.13 20.6231 16.13ZM33.3649 18.22C32.2356 18.22 31.2529 17.9927 30.4169 17.538C29.5809 17.0687 28.9356 16.4087 28.4809 15.558C28.0262 14.7073 27.7989 13.71 27.7989 12.566C27.7989 11.422 28.0262 10.4393 28.4809 9.618C28.9356 8.782 29.5809 8.144 30.4169 7.704C31.2529 7.24933 32.2356 7.022 33.3649 7.022C33.8489 7.022 34.3696 7.088 34.9269 7.22C35.4989 7.352 36.0342 7.572 36.5329 7.88C36.8262 8.056 36.9949 8.28333 37.0389 8.562C37.0976 8.84067 37.0609 9.09733 36.9289 9.332C36.8116 9.56667 36.6282 9.73533 36.3789 9.838C36.1442 9.94067 35.8729 9.904 35.5649 9.728C34.8902 9.34667 34.2376 9.156 33.6069 9.156C32.6536 9.156 31.9129 9.45667 31.3849 10.058C30.8716 10.6447 30.6149 11.488 30.6149 12.588C30.6149 13.6733 30.8716 14.5313 31.3849 15.162C31.9129 15.778 32.6536 16.086 33.6069 16.086C34.2376 16.086 34.8902 15.9027 35.5649 15.536C35.8729 15.36 36.1442 15.3233 36.3789 15.426C36.6136 15.5287 36.7822 15.7047 36.8849 15.954C36.9876 16.1887 37.0096 16.4453 36.9509 16.724C36.8922 16.988 36.7236 17.208 36.4449 17.384C35.9609 17.6773 35.4476 17.89 34.9049 18.022C34.3622 18.154 33.8489 18.22 33.3649 18.22ZM43.857 18.22C42.6397 18.22 41.591 17.9927 40.711 17.538C39.831 17.0833 39.149 16.438 38.665 15.602C38.1957 14.766 37.961 13.776 37.961 12.632C37.961 11.5173 38.1883 10.542 38.643 9.706C39.1123 8.87 39.7503 8.21733 40.557 7.748C41.3783 7.264 42.3097 7.022 43.351 7.022C44.8763 7.022 46.079 7.506 46.959 8.474C47.8537 9.442 48.301 10.762 48.301 12.434C48.301 12.9767 47.949 13.248 47.245 13.248H40.601C40.8063 15.1693 41.9063 16.13 43.901 16.13C44.2823 16.13 44.7077 16.086 45.177 15.998C45.661 15.8953 46.1157 15.7267 46.541 15.492C46.9223 15.272 47.245 15.206 47.509 15.294C47.773 15.3673 47.9563 15.5213 48.059 15.756C48.1763 15.9907 48.191 16.2547 48.103 16.548C48.0297 16.8267 47.8243 17.0687 47.487 17.274C46.9737 17.5967 46.3797 17.8387 45.705 18C45.045 18.1467 44.429 18.22 43.857 18.22ZM43.461 8.892C42.6543 8.892 42.0017 9.14133 41.503 9.64C41.0043 10.1387 40.7037 10.8133 40.601 11.664H46.013C45.9543 10.7693 45.705 10.0873 45.265 9.618C44.8397 9.134 44.2383 8.892 43.461 8.892ZM46.497 4.866C46.629 5.10067 46.6583 5.31333 46.585 5.504C46.5117 5.69467 46.387 5.84133 46.211 5.944C46.035 6.032 45.8443 6.06133 45.639 6.032C45.4483 6.00267 45.287 5.88533 45.155 5.68L43.373 2.908L41.591 5.68C41.459 5.88533 41.2903 6.00267 41.085 6.032C40.8943 6.06133 40.711 6.032 40.535 5.944C40.359 5.84133 40.2343 5.69467 40.161 5.504C40.0877 5.31333 40.117 5.10067 40.249 4.866L41.833 1.962C42.185 1.302 42.6983 0.971999 43.373 0.971999C44.0623 0.971999 44.583 1.302 44.935 1.962L46.497 4.866ZM59.9935 18.22C59.2162 18.22 58.5195 18.0733 57.9035 17.78C57.3022 17.472 56.8255 17.0613 56.4735 16.548C56.1362 16.0347 55.9675 15.4553 55.9675 14.81C55.9675 14.018 56.1728 13.3947 56.5835 12.94C56.9942 12.4707 57.6615 12.1333 58.5855 11.928C59.5095 11.7227 60.7488 11.62 62.3035 11.62H63.0735V11.158C63.0735 10.4247 62.9122 9.89667 62.5895 9.574C62.2668 9.25133 61.7242 9.09 60.9615 9.09C60.5362 9.09 60.0742 9.14133 59.5755 9.244C59.0915 9.34667 58.5782 9.52267 58.0355 9.772C57.6835 9.93333 57.3902 9.95533 57.1555 9.838C56.9208 9.706 56.7595 9.508 56.6715 9.244C56.5982 8.96533 56.6128 8.68667 56.7155 8.408C56.8328 8.12933 57.0602 7.924 57.3975 7.792C58.0722 7.51333 58.7175 7.31533 59.3335 7.198C59.9642 7.08067 60.5362 7.022 61.0495 7.022C62.6188 7.022 63.7848 7.38867 64.5475 8.122C65.3102 8.84067 65.6915 9.96267 65.6915 11.488V16.768C65.6915 17.7067 65.2662 18.176 64.4155 18.176C63.5502 18.176 63.1175 17.7067 63.1175 16.768V16.284C62.8682 16.8853 62.4722 17.362 61.9295 17.714C61.3868 18.0513 60.7415 18.22 59.9935 18.22ZM60.5655 16.328C61.2842 16.328 61.8782 16.0787 62.3475 15.58C62.8315 15.0813 63.0735 14.4507 63.0735 13.688V13.204H62.3255C60.9468 13.204 59.9862 13.314 59.4435 13.534C58.9155 13.7393 58.6515 14.1207 58.6515 14.678C58.6515 15.162 58.8202 15.558 59.1575 15.866C59.4948 16.174 59.9642 16.328 60.5655 16.328ZM69.8467 5.042C69.3334 5.042 68.9301 4.91733 68.6367 4.668C68.3581 4.404 68.2187 4.04467 68.2187 3.59C68.2187 3.12067 68.3581 2.76133 68.6367 2.512C68.9301 2.26267 69.3334 2.138 69.8467 2.138C70.9321 2.138 71.4747 2.622 71.4747 3.59C71.4747 4.558 70.9321 5.042 69.8467 5.042ZM69.8467 18.154C69.4067 18.154 69.0694 18.022 68.8347 17.758C68.6001 17.494 68.4827 17.1273 68.4827 16.658V8.584C68.4827 7.58667 68.9374 7.088 69.8467 7.088C70.7707 7.088 71.2327 7.58667 71.2327 8.584V16.658C71.2327 17.1273 71.1154 17.494 70.8807 17.758C70.6461 18.022 70.3014 18.154 69.8467 18.154ZM75.4542 18.176C74.5448 18.176 74.0902 17.7067 74.0902 16.768V8.452C74.0902 7.528 74.5375 7.066 75.4322 7.066C76.3268 7.066 76.7742 7.528 76.7742 8.452V8.914C77.1408 8.298 77.6322 7.82867 78.2482 7.506C78.8788 7.18333 79.5828 7.022 80.3602 7.022C82.8975 7.022 84.1662 8.496 84.1662 11.444V16.768C84.1662 17.7067 83.7115 18.176 82.8022 18.176C81.8782 18.176 81.4162 17.7067 81.4162 16.768V11.576C81.4162 10.74 81.2548 10.1313 80.9322 9.75C80.6242 9.36867 80.1402 9.178 79.4802 9.178C78.6735 9.178 78.0282 9.43467 77.5442 9.948C77.0748 10.4467 76.8402 11.114 76.8402 11.95V16.768C76.8402 17.7067 76.3782 18.176 75.4542 18.176ZM91.0953 18.22C90.1566 18.22 89.328 17.9927 88.6093 17.538C87.9053 17.0833 87.3553 16.438 86.9593 15.602C86.5633 14.7513 86.3653 13.754 86.3653 12.61C86.3653 11.4513 86.5633 10.4613 86.9593 9.64C87.3553 8.804 87.9053 8.15867 88.6093 7.704C89.328 7.24933 90.1566 7.022 91.0953 7.022C91.858 7.022 92.5473 7.19067 93.1633 7.528C93.7793 7.86533 94.2413 8.31267 94.5493 8.87V3.7C94.5493 2.776 95.004 2.314 95.9133 2.314C96.8373 2.314 97.2993 2.776 97.2993 3.7V16.768C97.2993 17.7067 96.8446 18.176 95.9353 18.176C95.026 18.176 94.5713 17.7067 94.5713 16.768V16.306C94.2633 16.8927 93.8013 17.362 93.1853 17.714C92.5693 18.0513 91.8726 18.22 91.0953 18.22ZM91.8653 16.13C92.6866 16.13 93.3466 15.8367 93.8453 15.25C94.344 14.6487 94.5933 13.7687 94.5933 12.61C94.5933 11.4367 94.344 10.564 93.8453 9.992C93.3466 9.40533 92.6866 9.112 91.8653 9.112C91.044 9.112 90.384 9.40533 89.8853 9.992C89.3866 10.564 89.1373 11.4367 89.1373 12.61C89.1373 13.7687 89.3866 14.6487 89.8853 15.25C90.384 15.8367 91.044 16.13 91.8653 16.13ZM103.693 18.22C102.915 18.22 102.219 18.0733 101.603 17.78C101.001 17.472 100.525 17.0613 100.173 16.548C99.8354 16.0347 99.6667 15.4553 99.6667 14.81C99.6667 14.018 99.872 13.3947 100.283 12.94C100.693 12.4707 101.361 12.1333 102.285 11.928C103.209 11.7227 104.448 11.62 106.003 11.62H106.773V11.158C106.773 10.4247 106.611 9.89667 106.289 9.574C105.966 9.25133 105.423 9.09 104.661 9.09C104.235 9.09 103.773 9.14133 103.275 9.244C102.791 9.34667 102.277 9.52267 101.735 9.772C101.383 9.93333 101.089 9.95533 100.855 9.838C100.62 9.706 100.459 9.508 100.371 9.244C100.297 8.96533 100.312 8.68667 100.415 8.408C100.532 8.12933 100.759 7.924 101.097 7.792C101.771 7.51333 102.417 7.31533 103.033 7.198C103.663 7.08067 104.235 7.022 104.749 7.022C106.318 7.022 107.484 7.38867 108.247 8.122C109.009 8.84067 109.391 9.96267 109.391 11.488V16.768C109.391 17.7067 108.965 18.176 108.115 18.176C107.249 18.176 106.817 17.7067 106.817 16.768V16.284C106.567 16.8853 106.171 17.362 105.629 17.714C105.086 18.0513 104.441 18.22 103.693 18.22ZM104.265 16.328C104.983 16.328 105.577 16.0787 106.047 15.58C106.531 15.0813 106.773 14.4507 106.773 13.688V13.204H106.025C104.646 13.204 103.685 13.314 103.143 13.534C102.615 13.7393 102.351 14.1207 102.351 14.678C102.351 15.162 102.519 15.558 102.857 15.866C103.194 16.174 103.663 16.328 104.265 16.328ZM119.519 18.176C118.609 18.176 118.155 17.7067 118.155 16.768V8.452C118.155 7.528 118.602 7.066 119.497 7.066C120.391 7.066 120.839 7.528 120.839 8.452V8.914C121.205 8.298 121.697 7.82867 122.313 7.506C122.943 7.18333 123.647 7.022 124.425 7.022C126.962 7.022 128.231 8.496 128.231 11.444V16.768C128.231 17.7067 127.776 18.176 126.867 18.176C125.943 18.176 125.481 17.7067 125.481 16.768V11.576C125.481 10.74 125.319 10.1313 124.997 9.75C124.689 9.36867 124.205 9.178 123.545 9.178C122.738 9.178 122.093 9.43467 121.609 9.948C121.139 10.4467 120.905 11.114 120.905 11.95V16.768C120.905 17.7067 120.443 18.176 119.519 18.176ZM134.566 18.22C133.788 18.22 133.092 18.0733 132.476 17.78C131.874 17.472 131.398 17.0613 131.046 16.548C130.708 16.0347 130.54 15.4553 130.54 14.81C130.54 14.018 130.745 13.3947 131.156 12.94C131.566 12.4707 132.234 12.1333 133.158 11.928C134.082 11.7227 135.321 11.62 136.876 11.62H137.646V11.158C137.646 10.4247 137.484 9.89667 137.162 9.574C136.839 9.25133 136.296 9.09 135.534 9.09C135.108 9.09 134.646 9.14133 134.148 9.244C133.664 9.34667 133.15 9.52267 132.608 9.772C132.256 9.93333 131.962 9.95533 131.728 9.838C131.493 9.706 131.332 9.508 131.244 9.244C131.17 8.96533 131.185 8.68667 131.288 8.408C131.405 8.12933 131.632 7.924 131.97 7.792C132.644 7.51333 133.29 7.31533 133.906 7.198C134.536 7.08067 135.108 7.022 135.622 7.022C137.191 7.022 138.357 7.38867 139.12 8.122C139.882 8.84067 140.264 9.96267 140.264 11.488V16.768C140.264 17.7067 139.838 18.176 138.988 18.176C138.122 18.176 137.69 17.7067 137.69 16.768V16.284C137.44 16.8853 137.044 17.362 136.502 17.714C135.959 18.0513 135.314 18.22 134.566 18.22ZM135.138 16.328C135.856 16.328 136.45 16.0787 136.92 15.58C137.404 15.0813 137.646 14.4507 137.646 13.688V13.204H136.898C135.519 13.204 134.558 13.314 134.016 13.534C133.488 13.7393 133.224 14.1207 133.224 14.678C133.224 15.162 133.392 15.558 133.73 15.866C134.067 16.174 134.536 16.328 135.138 16.328ZM132.146 5.218C131.926 5.20333 131.757 5.13 131.64 4.998C131.522 4.866 131.493 4.66067 131.552 4.382C131.625 3.97133 131.757 3.57533 131.948 3.194C132.153 2.798 132.432 2.468 132.784 2.204C133.136 1.94 133.576 1.808 134.104 1.808C134.47 1.808 134.793 1.88133 135.072 2.028C135.35 2.17467 135.607 2.34333 135.842 2.534C136.076 2.72467 136.311 2.89333 136.546 3.04C136.78 3.18667 137.037 3.26 137.316 3.26C137.624 3.26 137.888 3.15733 138.108 2.952C138.342 2.732 138.489 2.46067 138.548 2.138C138.621 1.80067 138.878 1.63933 139.318 1.654C139.538 1.66867 139.706 1.742 139.824 1.874C139.941 2.006 139.97 2.21133 139.912 2.49C139.838 2.886 139.699 3.282 139.494 3.678C139.288 4.074 139.01 4.404 138.658 4.668C138.32 4.932 137.888 5.064 137.36 5.064C136.993 5.064 136.67 4.99067 136.392 4.844C136.113 4.69733 135.849 4.52867 135.6 4.338C135.365 4.14733 135.13 3.97867 134.896 3.832C134.661 3.68533 134.412 3.612 134.148 3.612C133.84 3.612 133.576 3.71467 133.356 3.92C133.136 4.12533 132.989 4.39667 132.916 4.734C132.842 5.07133 132.586 5.23267 132.146 5.218ZM147.961 18.22C146.846 18.22 145.878 17.9927 145.057 17.538C144.236 17.0833 143.598 16.438 143.143 15.602C142.688 14.7513 142.461 13.754 142.461 12.61C142.461 11.466 142.688 10.476 143.143 9.64C143.598 8.804 144.236 8.15867 145.057 7.704C145.878 7.24933 146.846 7.022 147.961 7.022C149.076 7.022 150.044 7.24933 150.865 7.704C151.686 8.15867 152.324 8.804 152.779 9.64C153.234 10.476 153.461 11.466 153.461 12.61C153.461 13.754 153.234 14.7513 152.779 15.602C152.324 16.438 151.686 17.0833 150.865 17.538C150.044 17.9927 149.076 18.22 147.961 18.22ZM147.961 16.13C148.782 16.13 149.442 15.8367 149.941 15.25C150.44 14.6487 150.689 13.7687 150.689 12.61C150.689 11.4367 150.44 10.564 149.941 9.992C149.442 9.40533 148.782 9.112 147.961 9.112C147.14 9.112 146.48 9.40533 145.981 9.992C145.482 10.564 145.233 11.4367 145.233 12.61C145.233 13.7687 145.482 14.6487 145.981 15.25C146.48 15.8367 147.14 16.13 147.961 16.13ZM163.067 22.136C162.158 22.136 161.703 21.674 161.703 20.75V8.452C161.703 7.528 162.151 7.066 163.045 7.066C163.955 7.066 164.409 7.528 164.409 8.452V8.914C164.717 8.342 165.179 7.88733 165.795 7.55C166.411 7.198 167.115 7.022 167.907 7.022C168.846 7.022 169.667 7.24933 170.371 7.704C171.09 8.15867 171.647 8.804 172.043 9.64C172.439 10.4613 172.637 11.4513 172.637 12.61C172.637 13.754 172.439 14.7513 172.043 15.602C171.647 16.438 171.097 17.0833 170.393 17.538C169.689 17.9927 168.861 18.22 167.907 18.22C167.145 18.22 166.455 18.0587 165.839 17.736C165.238 17.3987 164.776 16.9513 164.453 16.394V20.75C164.453 21.674 163.991 22.136 163.067 22.136ZM167.137 16.13C167.959 16.13 168.619 15.8367 169.117 15.25C169.616 14.6487 169.865 13.7687 169.865 12.61C169.865 11.4367 169.616 10.564 169.117 9.992C168.619 9.40533 167.959 9.112 167.137 9.112C166.316 9.112 165.656 9.40533 165.157 9.992C164.659 10.564 164.409 11.4367 164.409 12.61C164.409 13.7687 164.659 14.6487 165.157 15.25C165.656 15.8367 166.316 16.13 167.137 16.13ZM179.801 18.22C178.686 18.22 177.718 17.9927 176.897 17.538C176.076 17.0833 175.438 16.438 174.983 15.602C174.528 14.7513 174.301 13.754 174.301 12.61C174.301 11.466 174.528 10.476 174.983 9.64C175.438 8.804 176.076 8.15867 176.897 7.704C177.718 7.24933 178.686 7.022 179.801 7.022C180.916 7.022 181.884 7.24933 182.705 7.704C183.526 8.15867 184.164 8.804 184.619 9.64C185.074 10.476 185.301 11.466 185.301 12.61C185.301 13.754 185.074 14.7513 184.619 15.602C184.164 16.438 183.526 17.0833 182.705 17.538C181.884 17.9927 180.916 18.22 179.801 18.22ZM179.801 16.13C180.622 16.13 181.282 15.8367 181.781 15.25C182.28 14.6487 182.529 13.7687 182.529 12.61C182.529 11.4367 182.28 10.564 181.781 9.992C181.282 9.40533 180.622 9.112 179.801 9.112C178.98 9.112 178.32 9.40533 177.821 9.992C177.322 10.564 177.073 11.4367 177.073 12.61C177.073 13.7687 177.322 14.6487 177.821 15.25C178.32 15.8367 178.98 16.13 179.801 16.13ZM191.509 18.22C190.878 18.22 190.211 18.154 189.507 18.022C188.803 17.89 188.172 17.6627 187.615 17.34C187.307 17.164 187.116 16.9513 187.043 16.702C186.969 16.438 186.977 16.196 187.065 15.976C187.167 15.7413 187.329 15.5727 187.549 15.47C187.783 15.3673 188.055 15.3893 188.363 15.536C188.949 15.8147 189.499 16.0127 190.013 16.13C190.526 16.2327 191.032 16.284 191.531 16.284C192.235 16.284 192.755 16.1667 193.093 15.932C193.445 15.6827 193.621 15.36 193.621 14.964C193.621 14.348 193.166 13.952 192.257 13.776L190.057 13.358C188.194 13.006 187.263 12.038 187.263 10.454C187.263 9.75 187.453 9.14133 187.835 8.628C188.231 8.11467 188.773 7.71867 189.463 7.44C190.152 7.16133 190.944 7.022 191.839 7.022C193.129 7.022 194.281 7.308 195.293 7.88C195.571 8.02667 195.733 8.232 195.777 8.496C195.835 8.74533 195.806 8.98733 195.689 9.222C195.586 9.442 195.417 9.60333 195.183 9.706C194.948 9.794 194.677 9.76467 194.369 9.618C193.914 9.38333 193.474 9.21467 193.049 9.112C192.638 9.00933 192.242 8.958 191.861 8.958C191.142 8.958 190.607 9.08267 190.255 9.332C189.917 9.58133 189.749 9.91133 189.749 10.322C189.749 10.9673 190.167 11.3633 191.003 11.51L193.203 11.928C194.156 12.104 194.875 12.4267 195.359 12.896C195.857 13.3653 196.107 13.996 196.107 14.788C196.107 15.8587 195.689 16.702 194.853 17.318C194.017 17.9193 192.902 18.22 191.509 18.22ZM202.251 18.22C201.62 18.22 200.953 18.154 200.249 18.022C199.545 17.89 198.914 17.6627 198.357 17.34C198.049 17.164 197.858 16.9513 197.785 16.702C197.711 16.438 197.719 16.196 197.807 15.976C197.909 15.7413 198.071 15.5727 198.291 15.47C198.525 15.3673 198.797 15.3893 199.105 15.536C199.691 15.8147 200.241 16.0127 200.755 16.13C201.268 16.2327 201.774 16.284 202.273 16.284C202.977 16.284 203.497 16.1667 203.835 15.932C204.187 15.6827 204.363 15.36 204.363 14.964C204.363 14.348 203.908 13.952 202.999 13.776L200.799 13.358C198.936 13.006 198.005 12.038 198.005 10.454C198.005 9.75 198.195 9.14133 198.577 8.628C198.973 8.11467 199.515 7.71867 200.205 7.44C200.894 7.16133 201.686 7.022 202.581 7.022C203.871 7.022 205.023 7.308 206.035 7.88C206.313 8.02667 206.475 8.232 206.519 8.496C206.577 8.74533 206.548 8.98733 206.431 9.222C206.328 9.442 206.159 9.60333 205.925 9.706C205.69 9.794 205.419 9.76467 205.111 9.618C204.656 9.38333 204.216 9.21467 203.791 9.112C203.38 9.00933 202.984 8.958 202.603 8.958C201.884 8.958 201.349 9.08267 200.997 9.332C200.659 9.58133 200.491 9.91133 200.491 10.322C200.491 10.9673 200.909 11.3633 201.745 11.51L203.945 11.928C204.898 12.104 205.617 12.4267 206.101 12.896C206.599 13.3653 206.849 13.996 206.849 14.788C206.849 15.8587 206.431 16.702 205.595 17.318C204.759 17.9193 203.644 18.22 202.251 18.22ZM212.949 18.22C210.309 18.22 208.989 16.7387 208.989 13.776V8.452C208.989 7.528 209.444 7.066 210.353 7.066C211.277 7.066 211.739 7.528 211.739 8.452V13.82C211.739 14.5827 211.893 15.1473 212.201 15.514C212.509 15.8807 213 16.064 213.675 16.064C214.408 16.064 215.01 15.8147 215.479 15.316C215.948 14.8027 216.183 14.128 216.183 13.292V8.452C216.183 7.528 216.638 7.066 217.547 7.066C218.471 7.066 218.933 7.528 218.933 8.452V16.768C218.933 17.7067 218.486 18.176 217.591 18.176C216.696 18.176 216.249 17.7067 216.249 16.768V16.394C215.53 17.6113 214.43 18.22 212.949 18.22ZM223.159 5.042C222.646 5.042 222.243 4.91733 221.949 4.668C221.671 4.404 221.531 4.04467 221.531 3.59C221.531 3.12067 221.671 2.76133 221.949 2.512C222.243 2.26267 222.646 2.138 223.159 2.138C224.245 2.138 224.787 2.622 224.787 3.59C224.787 4.558 224.245 5.042 223.159 5.042ZM223.159 18.154C222.719 18.154 222.382 18.022 222.147 17.758C221.913 17.494 221.795 17.1273 221.795 16.658V8.584C221.795 7.58667 222.25 7.088 223.159 7.088C224.083 7.088 224.545 7.58667 224.545 8.584V16.658C224.545 17.1273 224.428 17.494 224.193 17.758C223.959 18.022 223.614 18.154 223.159 18.154ZM234.739 18.176C233.83 18.176 233.375 17.7067 233.375 16.768V8.452C233.375 7.528 233.823 7.066 234.717 7.066C235.612 7.066 236.059 7.528 236.059 8.452V8.914C236.426 8.298 236.917 7.82867 237.533 7.506C238.164 7.18333 238.868 7.022 239.645 7.022C242.183 7.022 243.451 8.496 243.451 11.444V16.768C243.451 17.7067 242.997 18.176 242.087 18.176C241.163 18.176 240.701 17.7067 240.701 16.768V11.576C240.701 10.74 240.54 10.1313 240.217 9.75C239.909 9.36867 239.425 9.178 238.765 9.178C237.959 9.178 237.313 9.43467 236.829 9.948C236.36 10.4467 236.125 11.114 236.125 11.95V16.768C236.125 17.7067 235.663 18.176 234.739 18.176ZM251.546 18.22C250.329 18.22 249.28 17.9927 248.4 17.538C247.52 17.0833 246.838 16.438 246.354 15.602C245.885 14.766 245.65 13.776 245.65 12.632C245.65 11.5173 245.878 10.542 246.332 9.706C246.802 8.87 247.44 8.21733 248.246 7.748C249.068 7.264 249.999 7.022 251.04 7.022C252.566 7.022 253.768 7.506 254.648 8.474C255.543 9.442 255.99 10.762 255.99 12.434C255.99 12.9767 255.638 13.248 254.934 13.248H248.29C248.496 15.1693 249.596 16.13 251.59 16.13C251.972 16.13 252.397 16.086 252.866 15.998C253.35 15.8953 253.805 15.7267 254.23 15.492C254.612 15.272 254.934 15.206 255.198 15.294C255.462 15.3673 255.646 15.5213 255.748 15.756C255.866 15.9907 255.88 16.2547 255.792 16.548C255.719 16.8267 255.514 17.0687 255.176 17.274C254.663 17.5967 254.069 17.8387 253.394 18C252.734 18.1467 252.118 18.22 251.546 18.22ZM251.15 8.892C250.344 8.892 249.691 9.14133 249.192 9.64C248.694 10.1387 248.393 10.8133 248.29 11.664H253.702C253.644 10.7693 253.394 10.0873 252.954 9.618C252.529 9.134 251.928 8.892 251.15 8.892ZM259.532 18.176C258.623 18.176 258.168 17.7067 258.168 16.768V8.452C258.168 7.528 258.616 7.066 259.51 7.066C260.405 7.066 260.852 7.528 260.852 8.452V8.914C261.219 8.298 261.71 7.82867 262.326 7.506C262.957 7.18333 263.661 7.022 264.438 7.022C266.976 7.022 268.244 8.496 268.244 11.444V16.768C268.244 17.7067 267.79 18.176 266.88 18.176C265.956 18.176 265.494 17.7067 265.494 16.768V11.576C265.494 10.74 265.333 10.1313 265.01 9.75C264.702 9.36867 264.218 9.178 263.558 9.178C262.752 9.178 262.106 9.43467 261.622 9.948C261.153 10.4467 260.918 11.114 260.918 11.95V16.768C260.918 17.7067 260.456 18.176 259.532 18.176ZM272.401 18.176C271.492 18.176 271.037 17.7067 271.037 16.768V3.7C271.037 2.776 271.492 2.314 272.401 2.314C273.325 2.314 273.787 2.776 273.787 3.7V8.804C274.154 8.21733 274.645 7.77733 275.261 7.484C275.877 7.176 276.559 7.022 277.307 7.022C279.845 7.022 281.113 8.496 281.113 11.444V16.768C281.113 17.7067 280.659 18.176 279.749 18.176C278.825 18.176 278.363 17.7067 278.363 16.768V11.576C278.363 10.74 278.202 10.1313 277.879 9.75C277.571 9.36867 277.087 9.178 276.427 9.178C275.621 9.178 274.975 9.43467 274.491 9.948C274.022 10.4467 273.787 11.114 273.787 11.95V16.768C273.787 17.7067 273.325 18.176 272.401 18.176ZM287.801 18.22C285.161 18.22 283.841 16.7387 283.841 13.776V8.452C283.841 7.528 284.295 7.066 285.205 7.066C286.129 7.066 286.591 7.528 286.591 8.452V13.82C286.591 14.5827 286.745 15.1473 287.053 15.514C287.361 15.8807 287.852 16.064 288.527 16.064C289.26 16.064 289.861 15.8147 290.331 15.316C290.8 14.8027 291.035 14.128 291.035 13.292V8.452C291.035 7.528 291.489 7.066 292.399 7.066C293.323 7.066 293.785 7.528 293.785 8.452V16.768C293.785 17.7067 293.337 18.176 292.443 18.176C291.548 18.176 291.101 17.7067 291.101 16.768V16.394C290.382 17.6113 289.282 18.22 287.801 18.22ZM298.055 18.176C297.145 18.176 296.691 17.7067 296.691 16.768V8.452C296.691 7.528 297.138 7.066 298.033 7.066C298.927 7.066 299.375 7.528 299.375 8.452V8.892C299.697 8.30533 300.145 7.85067 300.717 7.528C301.289 7.19067 301.949 7.022 302.697 7.022C304.31 7.022 305.366 7.726 305.865 9.134C306.202 8.474 306.686 7.96067 307.317 7.594C307.947 7.21267 308.666 7.022 309.473 7.022C311.893 7.022 313.103 8.496 313.103 11.444V16.768C313.103 17.7067 312.641 18.176 311.717 18.176C310.807 18.176 310.353 17.7067 310.353 16.768V11.554C310.353 10.7327 310.213 10.1313 309.935 9.75C309.671 9.36867 309.216 9.178 308.571 9.178C307.852 9.178 307.287 9.43467 306.877 9.948C306.466 10.4467 306.261 11.1433 306.261 12.038V16.768C306.261 17.7067 305.806 18.176 304.897 18.176C303.973 18.176 303.511 17.7067 303.511 16.768V11.554C303.511 10.7327 303.371 10.1313 303.093 9.75C302.829 9.36867 302.381 9.178 301.751 9.178C301.032 9.178 300.467 9.43467 300.057 9.948C299.646 10.4467 299.441 11.1433 299.441 12.038V16.768C299.441 17.7067 298.979 18.176 298.055 18.176ZM325.586 18.22C323.137 18.22 321.912 16.8487 321.912 14.106V3.7C321.912 2.776 322.367 2.314 323.276 2.314C324.2 2.314 324.662 2.776 324.662 3.7V13.974C324.662 15.294 325.212 15.954 326.312 15.954C326.43 15.954 326.54 15.954 326.642 15.954C326.745 15.9393 326.848 15.9247 326.95 15.91C327.156 15.8807 327.295 15.9393 327.368 16.086C327.442 16.218 327.478 16.4967 327.478 16.922C327.478 17.2887 327.405 17.5747 327.258 17.78C327.112 17.9853 326.87 18.11 326.532 18.154C326.224 18.198 325.909 18.22 325.586 18.22ZM332.48 18.22C331.702 18.22 331.006 18.0733 330.39 17.78C329.788 17.472 329.312 17.0613 328.96 16.548C328.622 16.0347 328.454 15.4553 328.454 14.81C328.454 14.018 328.659 13.3947 329.07 12.94C329.48 12.4707 330.148 12.1333 331.072 11.928C331.996 11.7227 333.235 11.62 334.79 11.62H335.56V11.158C335.56 10.4247 335.398 9.89667 335.076 9.574C334.753 9.25133 334.21 9.09 333.448 9.09C333.022 9.09 332.56 9.14133 332.062 9.244C331.578 9.34667 331.064 9.52267 330.522 9.772C330.17 9.93333 329.876 9.95533 329.642 9.838C329.407 9.706 329.246 9.508 329.158 9.244C329.084 8.96533 329.099 8.68667 329.202 8.408C329.319 8.12933 329.546 7.924 329.884 7.792C330.558 7.51333 331.204 7.31533 331.82 7.198C332.45 7.08067 333.022 7.022 333.536 7.022C335.105 7.022 336.271 7.38867 337.034 8.122C337.796 8.84067 338.178 9.96267 338.178 11.488V16.768C338.178 17.7067 337.752 18.176 336.902 18.176C336.036 18.176 335.604 17.7067 335.604 16.768V16.284C335.354 16.8853 334.958 17.362 334.416 17.714C333.873 18.0513 333.228 18.22 332.48 18.22ZM333.052 16.328C333.77 16.328 334.364 16.0787 334.834 15.58C335.318 15.0813 335.56 14.4507 335.56 13.688V13.204H334.812C333.433 13.204 332.472 13.314 331.93 13.534C331.402 13.7393 331.138 14.1207 331.138 14.678C331.138 15.162 331.306 15.558 331.644 15.866C331.981 16.174 332.45 16.328 333.052 16.328ZM342.333 18.176C341.424 18.176 340.969 17.7067 340.969 16.768V8.452C340.969 7.528 341.416 7.066 342.311 7.066C343.206 7.066 343.653 7.528 343.653 8.452V8.914C344.02 8.298 344.511 7.82867 345.127 7.506C345.758 7.18333 346.462 7.022 347.239 7.022C349.776 7.022 351.045 8.496 351.045 11.444V16.768C351.045 17.7067 350.59 18.176 349.681 18.176C348.757 18.176 348.295 17.7067 348.295 16.768V11.576C348.295 10.74 348.134 10.1313 347.811 9.75C347.503 9.36867 347.019 9.178 346.359 9.178C345.552 9.178 344.907 9.43467 344.423 9.948C343.954 10.4467 343.719 11.114 343.719 11.95V16.768C343.719 17.7067 343.257 18.176 342.333 18.176ZM358.81 18.22C357.681 18.22 356.698 17.9927 355.862 17.538C355.026 17.0687 354.381 16.4087 353.926 15.558C353.472 14.7073 353.244 13.71 353.244 12.566C353.244 11.422 353.472 10.4393 353.926 9.618C354.381 8.782 355.026 8.144 355.862 7.704C356.698 7.24933 357.681 7.022 358.81 7.022C359.294 7.022 359.815 7.088 360.372 7.22C360.944 7.352 361.48 7.572 361.978 7.88C362.272 8.056 362.44 8.28333 362.484 8.562C362.543 8.84067 362.506 9.09733 362.374 9.332C362.257 9.56667 362.074 9.73533 361.824 9.838C361.59 9.94067 361.318 9.904 361.01 9.728C360.336 9.34667 359.683 9.156 359.052 9.156C358.099 9.156 357.358 9.45667 356.83 10.058C356.317 10.6447 356.06 11.488 356.06 12.588C356.06 13.6733 356.317 14.5313 356.83 15.162C357.358 15.778 358.099 16.086 359.052 16.086C359.683 16.086 360.336 15.9027 361.01 15.536C361.318 15.36 361.59 15.3233 361.824 15.426C362.059 15.5287 362.228 15.7047 362.33 15.954C362.433 16.1887 362.455 16.4453 362.396 16.724C362.338 16.988 362.169 17.208 361.89 17.384C361.406 17.6773 360.893 17.89 360.35 18.022C359.808 18.154 359.294 18.22 358.81 18.22ZM358.678 22.29C358.4 22.29 358.106 22.268 357.798 22.224C357.49 22.1947 357.212 22.136 356.962 22.048C356.669 21.9453 356.5 21.7693 356.456 21.52C356.412 21.2707 356.471 21.058 356.632 20.882C356.808 20.706 357.043 20.6767 357.336 20.794C357.674 20.9113 358.048 20.97 358.458 20.97C359.25 20.97 359.646 20.75 359.646 20.31C359.646 19.9727 359.375 19.804 358.832 19.804C358.73 19.804 358.62 19.804 358.502 19.804C358.4 19.8187 358.29 19.8407 358.172 19.87C357.967 19.9287 357.798 19.9067 357.666 19.804C357.549 19.7013 357.512 19.5107 357.556 19.232L357.798 17.56H359.272L359.052 18.836C359.14 18.8213 359.221 18.814 359.294 18.814C359.896 18.814 360.38 18.9533 360.746 19.232C361.113 19.5107 361.296 19.8993 361.296 20.398C361.296 20.97 361.054 21.4247 360.57 21.762C360.086 22.114 359.456 22.29 358.678 22.29ZM367.693 18.22C366.915 18.22 366.219 18.0733 365.603 17.78C365.001 17.472 364.525 17.0613 364.173 16.548C363.835 16.0347 363.667 15.4553 363.667 14.81C363.667 14.018 363.872 13.3947 364.283 12.94C364.693 12.4707 365.361 12.1333 366.285 11.928C367.209 11.7227 368.448 11.62 370.003 11.62H370.773V11.158C370.773 10.4247 370.611 9.89667 370.289 9.574C369.966 9.25133 369.423 9.09 368.661 9.09C368.235 9.09 367.773 9.14133 367.275 9.244C366.791 9.34667 366.277 9.52267 365.735 9.772C365.383 9.93333 365.089 9.95533 364.855 9.838C364.62 9.706 364.459 9.508 364.371 9.244C364.297 8.96533 364.312 8.68667 364.415 8.408C364.532 8.12933 364.759 7.924 365.097 7.792C365.771 7.51333 366.417 7.31533 367.033 7.198C367.663 7.08067 368.235 7.022 368.749 7.022C370.318 7.022 371.484 7.38867 372.247 8.122C373.009 8.84067 373.391 9.96267 373.391 11.488V16.768C373.391 17.7067 372.965 18.176 372.115 18.176C371.249 18.176 370.817 17.7067 370.817 16.768V16.284C370.567 16.8853 370.171 17.362 369.629 17.714C369.086 18.0513 368.441 18.22 367.693 18.22ZM368.265 16.328C368.983 16.328 369.577 16.0787 370.047 15.58C370.531 15.0813 370.773 14.4507 370.773 13.688V13.204H370.025C368.646 13.204 367.685 13.314 367.143 13.534C366.615 13.7393 366.351 14.1207 366.351 14.678C366.351 15.162 366.519 15.558 366.857 15.866C367.194 16.174 367.663 16.328 368.265 16.328ZM377.59 18.176C376.681 18.176 376.226 17.7067 376.226 16.768V8.452C376.226 7.528 376.673 7.066 377.568 7.066C378.463 7.066 378.91 7.528 378.91 8.452V8.892C379.233 8.30533 379.68 7.85067 380.252 7.528C380.824 7.19067 381.484 7.022 382.232 7.022C383.845 7.022 384.901 7.726 385.4 9.134C385.737 8.474 386.221 7.96067 386.852 7.594C387.483 7.21267 388.201 7.022 389.008 7.022C391.428 7.022 392.638 8.496 392.638 11.444V16.768C392.638 17.7067 392.176 18.176 391.252 18.176C390.343 18.176 389.888 17.7067 389.888 16.768V11.554C389.888 10.7327 389.749 10.1313 389.47 9.75C389.206 9.36867 388.751 9.178 388.106 9.178C387.387 9.178 386.823 9.43467 386.412 9.948C386.001 10.4467 385.796 11.1433 385.796 12.038V16.768C385.796 17.7067 385.341 18.176 384.432 18.176C383.508 18.176 383.046 17.7067 383.046 16.768V11.554C383.046 10.7327 382.907 10.1313 382.628 9.75C382.364 9.36867 381.917 9.178 381.286 9.178C380.567 9.178 380.003 9.43467 379.592 9.948C379.181 10.4467 378.976 11.1433 378.976 12.038V16.768C378.976 17.7067 378.514 18.176 377.59 18.176ZM400.777 18.22C399.56 18.22 398.511 17.9927 397.631 17.538C396.751 17.0833 396.069 16.438 395.585 15.602C395.116 14.766 394.881 13.776 394.881 12.632C394.881 11.5173 395.108 10.542 395.563 9.706C396.032 8.87 396.67 8.21733 397.477 7.748C398.298 7.264 399.23 7.022 400.271 7.022C401.796 7.022 402.999 7.506 403.879 8.474C404.774 9.442 405.221 10.762 405.221 12.434C405.221 12.9767 404.869 13.248 404.165 13.248H397.521C397.726 15.1693 398.826 16.13 400.821 16.13C401.202 16.13 401.628 16.086 402.097 15.998C402.581 15.8953 403.036 15.7267 403.461 15.492C403.842 15.272 404.165 15.206 404.429 15.294C404.693 15.3673 404.876 15.5213 404.979 15.756C405.096 15.9907 405.111 16.2547 405.023 16.548C404.95 16.8267 404.744 17.0687 404.407 17.274C403.894 17.5967 403.3 17.8387 402.625 18C401.965 18.1467 401.349 18.22 400.777 18.22ZM400.381 8.892C399.574 8.892 398.922 9.14133 398.423 9.64C397.924 10.1387 397.624 10.8133 397.521 11.664H402.933C402.874 10.7693 402.625 10.0873 402.185 9.618C401.76 9.134 401.158 8.892 400.381 8.892ZM408.763 18.176C407.853 18.176 407.399 17.7067 407.399 16.768V8.452C407.399 7.528 407.846 7.066 408.741 7.066C409.635 7.066 410.083 7.528 410.083 8.452V8.914C410.449 8.298 410.941 7.82867 411.557 7.506C412.187 7.18333 412.891 7.022 413.669 7.022C416.206 7.022 417.475 8.496 417.475 11.444V16.768C417.475 17.7067 417.02 18.176 416.111 18.176C415.187 18.176 414.725 17.7067 414.725 16.768V11.576C414.725 10.74 414.563 10.1313 414.241 9.75C413.933 9.36867 413.449 9.178 412.789 9.178C411.982 9.178 411.337 9.43467 410.853 9.948C410.383 10.4467 410.149 11.114 410.149 11.95V16.768C410.149 17.7067 409.687 18.176 408.763 18.176ZM425.196 18.22C422.351 18.22 420.928 16.812 420.928 13.996V9.31H419.784C419.051 9.31 418.684 8.96533 418.684 8.276C418.684 7.58667 419.051 7.242 419.784 7.242H420.928V5.24C420.928 4.316 421.39 3.854 422.314 3.854C423.223 3.854 423.678 4.316 423.678 5.24V7.242H426.01C426.743 7.242 427.11 7.58667 427.11 8.276C427.11 8.96533 426.743 9.31 426.01 9.31H423.678V13.842C423.678 14.546 423.832 15.074 424.14 15.426C424.448 15.778 424.947 15.954 425.636 15.954C425.885 15.954 426.105 15.932 426.296 15.888C426.487 15.844 426.655 15.8147 426.802 15.8C426.978 15.7853 427.125 15.844 427.242 15.976C427.359 16.0933 427.418 16.3427 427.418 16.724C427.418 17.0173 427.367 17.2813 427.264 17.516C427.176 17.736 427.007 17.89 426.758 17.978C426.567 18.0367 426.318 18.088 426.01 18.132C425.702 18.1907 425.431 18.22 425.196 18.22ZM433.51 18.22C432.395 18.22 431.427 17.9927 430.606 17.538C429.784 17.0833 429.146 16.438 428.692 15.602C428.237 14.7513 428.01 13.754 428.01 12.61C428.01 11.466 428.237 10.476 428.692 9.64C429.146 8.804 429.784 8.15867 430.606 7.704C431.427 7.24933 432.395 7.022 433.51 7.022C434.624 7.022 435.592 7.24933 436.414 7.704C437.235 8.15867 437.873 8.804 438.328 9.64C438.782 10.476 439.01 11.466 439.01 12.61C439.01 13.754 438.782 14.7513 438.328 15.602C437.873 16.438 437.235 17.0833 436.414 17.538C435.592 17.9927 434.624 18.22 433.51 18.22ZM433.51 16.13C434.331 16.13 434.991 15.8367 435.49 15.25C435.988 14.6487 436.238 13.7687 436.238 12.61C436.238 11.4367 435.988 10.564 435.49 9.992C434.991 9.40533 434.331 9.112 433.51 9.112C432.688 9.112 432.028 9.40533 431.53 9.992C431.031 10.564 430.782 11.4367 430.782 12.61C430.782 13.7687 431.031 14.6487 431.53 15.25C432.028 15.8367 432.688 16.13 433.51 16.13Z" fill="#5B6166"/>
</svg>
